<svg width="226" height="86" viewBox="0 0 226 86" fill="none" xmlns="http://www.w3.org/2000/svg">
<path d="M63.5697 13.0402C63.5697 14.697 62.2266 16.0402 60.5697 16.0402H3.22071C1.56385 16.0402 0.220703 17.3833 0.220703 19.0402V23.7337C0.220703 25.3905 1.56385 26.7337 3.2207 26.7337H60.5697C62.2266 26.7337 63.5697 28.0768 63.5697 29.7337V35.4481C63.5697 38.1325 66.8252 39.4656 68.708 37.5523L82.5451 23.4911C83.694 22.3236 83.694 20.4503 82.5451 19.2827L68.708 5.22153C66.8252 3.30822 63.5697 4.64139 63.5697 7.32574V13.0402Z" fill="#3A2302"/>
<path d="M21.181 72.2798C21.1984 70.623 22.5555 69.2944 24.2122 69.3122L81.5581 69.9284C83.2148 69.9462 84.5719 68.6176 84.5893 66.9608L84.6384 62.2676C84.6557 60.6109 83.3267 59.2534 81.6699 59.2356L24.3241 58.6193C22.6673 58.6015 21.3383 57.244 21.3556 55.5872L21.4154 49.8731C21.4435 47.1889 18.2021 45.8208 16.2994 47.7138L2.31607 61.6255C1.15498 62.7806 1.13538 64.6538 2.27205 65.8337L15.9613 80.0428C17.824 81.9762 21.0932 80.6781 21.1213 77.9939L21.181 72.2798Z" fill="#3A2302"/>
<line x1="100.338" y1="6.24123" x2="100.338" y2="79.7588" stroke="#3A2302" stroke-width="5"/>
<path d="M135.809 34.604C135.937 35.628 136.011 36.8227 136.033 38.188C136.054 39.532 136.033 40.8973 135.969 42.284C135.926 43.6493 135.83 44.9507 135.681 46.188C135.531 47.404 135.35 48.3853 135.137 49.132C134.987 49.58 134.806 50.0493 134.593 50.54C134.401 51.0093 134.187 51.436 133.953 51.82C133.611 52.396 133.195 52.908 132.705 53.356C132.214 53.7827 131.67 54.156 131.073 54.476C130.497 54.7747 129.878 55.0093 129.217 55.18C128.577 55.3507 127.937 55.4467 127.297 55.468C126.166 55.5107 125.089 55.3507 124.065 54.988C123.062 54.604 122.134 54.0067 121.281 53.196C120.641 52.5773 120.129 51.916 119.745 51.212C119.361 50.508 119.062 49.772 118.849 49.004C118.635 48.2147 118.497 47.404 118.433 46.572C118.39 45.74 118.369 44.8867 118.369 44.012C118.369 43.6067 118.358 43.1053 118.337 42.508C118.337 41.8893 118.337 41.26 118.337 40.62C118.337 39.9587 118.337 39.3187 118.337 38.7C118.337 38.0813 118.347 37.5587 118.369 37.132C118.369 36.8547 118.369 36.556 118.369 36.236C118.369 35.8947 118.379 35.564 118.401 35.244C118.443 34.9027 118.507 34.5827 118.593 34.284C118.678 33.964 118.806 33.676 118.977 33.42C119.169 33.1427 119.435 32.94 119.777 32.812C120.118 32.684 120.47 32.62 120.833 32.62C121.217 32.62 121.579 32.6947 121.921 32.844C122.262 32.9933 122.539 33.2067 122.753 33.484C122.859 33.6547 122.934 33.8253 122.977 33.996C123.019 34.1667 123.051 34.3587 123.073 34.572C123.115 35.276 123.137 36.076 123.137 36.972C123.158 37.868 123.158 38.7427 123.137 39.596C123.137 40.428 123.126 41.196 123.105 41.9C123.083 42.604 123.073 43.1267 123.073 43.468C123.073 44.748 123.137 45.9107 123.265 46.956C123.393 47.98 123.691 48.8333 124.161 49.516C124.587 50.1347 125.089 50.5293 125.665 50.7C126.241 50.8707 126.817 50.924 127.393 50.86C127.926 50.796 128.459 50.604 128.993 50.284C129.547 49.9427 129.985 49.452 130.305 48.812C130.433 48.5773 130.539 48.3107 130.625 48.012C130.71 47.7133 130.774 47.436 130.817 47.18C130.902 46.3693 130.977 45.4307 131.041 44.364C131.105 43.276 131.158 42.1667 131.201 41.036C131.243 39.9053 131.265 38.796 131.265 37.708C131.265 36.62 131.254 35.6387 131.233 34.764C131.275 34.38 131.393 34.028 131.585 33.708C131.755 33.4307 132.001 33.1853 132.321 32.972C132.641 32.7587 133.078 32.652 133.633 32.652C134.081 32.6733 134.443 32.7907 134.721 33.004C134.998 33.196 135.222 33.4093 135.393 33.644C135.585 33.9213 135.723 34.2413 135.809 34.604ZM155.13 54.092C155.151 54.3053 155.13 54.508 155.066 54.7C155.023 54.828 154.959 54.9347 154.874 55.02C154.81 55.1053 154.725 55.1907 154.618 55.276C154.426 55.404 154.191 55.5213 153.914 55.628C153.743 55.6707 153.573 55.7027 153.402 55.724C153.253 55.7667 153.093 55.7667 152.922 55.724C152.581 55.7027 152.282 55.5747 152.026 55.34C151.663 55.0413 151.365 54.7107 151.13 54.348C151.023 54.1773 150.906 53.9853 150.778 53.772C150.65 53.5587 150.533 53.3347 150.426 53.1L146.874 46.348C146.703 46.348 146.533 46.3587 146.362 46.38C146.191 46.38 146.021 46.3907 145.85 46.412C145.402 46.4547 144.975 46.4653 144.57 46.444C144.186 46.4227 143.781 46.4227 143.354 46.444H142.746V52.236C142.746 52.4067 142.735 52.5667 142.714 52.716C142.714 52.8653 142.714 53.0253 142.714 53.196C142.714 53.3027 142.703 53.4413 142.682 53.612C142.682 53.7827 142.671 53.9427 142.65 54.092C142.607 54.3267 142.511 54.572 142.362 54.828C142.213 55.0627 142.01 55.2653 141.754 55.436C141.306 55.7133 140.762 55.788 140.122 55.66C139.845 55.596 139.578 55.4893 139.322 55.34C139.237 55.276 139.162 55.2013 139.098 55.116C139.034 55.0093 138.981 54.9027 138.938 54.796C138.895 54.6893 138.853 54.5827 138.81 54.476C138.789 54.348 138.757 54.2307 138.714 54.124C138.65 53.9107 138.618 53.708 138.618 53.516V35.34C138.618 35.212 138.618 35.084 138.618 34.956C138.639 34.8067 138.661 34.6787 138.682 34.572C138.703 34.3373 138.778 34.1027 138.906 33.868C138.97 33.612 139.077 33.4307 139.226 33.324C139.354 33.196 139.546 33.0893 139.802 33.004C140.079 32.8973 140.474 32.8547 140.986 32.876C141.946 32.8973 142.895 32.908 143.834 32.908C144.773 32.908 145.711 32.9293 146.65 32.972C147.269 33.0147 147.919 33.0893 148.602 33.196C149.306 33.2813 149.957 33.4413 150.554 33.676C150.938 33.8253 151.29 33.9747 151.61 34.124C152.015 34.3587 152.335 34.5827 152.57 34.796C153.317 35.4787 153.882 36.3 154.266 37.26C154.65 38.22 154.842 39.1907 154.842 40.172C154.842 41.324 154.565 42.38 154.01 43.34C153.477 44.3 152.613 45.0147 151.418 45.484C151.375 45.5267 151.311 45.5587 151.226 45.58C151.162 45.58 151.109 45.5907 151.066 45.612L154.01 51.532L154.298 52.044C154.341 52.1293 154.394 52.2253 154.458 52.332C154.522 52.4387 154.575 52.5453 154.618 52.652C154.682 52.7587 154.735 52.876 154.778 53.004C154.842 53.132 154.906 53.2493 154.97 53.356C155.034 53.6547 155.087 53.9 155.13 54.092ZM147.13 42.7C147.514 42.7 147.877 42.636 148.218 42.508C148.581 42.3587 148.901 42.1667 149.178 41.932C149.477 41.6973 149.722 41.4307 149.914 41.132C150.106 40.812 150.213 40.4707 150.234 40.108C150.319 39.0413 150.042 38.252 149.402 37.74C148.762 37.2067 147.919 36.9187 146.874 36.876C146.255 36.8333 145.573 36.812 144.826 36.812C144.101 36.812 143.407 36.812 142.746 36.812C142.767 37.6867 142.767 38.5827 142.746 39.5C142.746 40.396 142.746 41.4627 142.746 42.7H147.13ZM173.282 33.836C173.517 34.1133 173.634 34.4013 173.634 34.7C173.634 34.828 173.623 34.9667 173.602 35.116C173.602 35.244 173.591 35.3613 173.57 35.468C173.506 35.7027 173.367 35.9267 173.154 36.14C172.983 36.268 172.749 36.364 172.45 36.428C172.301 36.4707 172.151 36.5027 172.002 36.524C171.853 36.5453 171.693 36.5773 171.522 36.62C171.373 36.6413 171.223 36.652 171.074 36.652C170.925 36.652 170.765 36.652 170.594 36.652H168.962C168.578 36.6733 168.194 36.684 167.81 36.684C167.447 36.684 167.085 36.684 166.722 36.684C166.743 37.3453 166.754 38.06 166.754 38.828C166.754 39.5747 166.743 40.4493 166.722 41.452C166.722 42.4547 166.711 43.6173 166.69 44.94C166.69 46.2627 166.69 47.7987 166.69 49.548V51.98C166.69 52.1933 166.701 52.3533 166.722 52.46C166.722 52.5453 166.722 52.6307 166.722 52.716C166.722 52.78 166.711 52.8653 166.69 52.972C166.647 53.164 166.615 53.388 166.594 53.644C166.594 53.7507 166.583 53.8573 166.562 53.964C166.541 54.0493 166.509 54.1453 166.466 54.252C166.381 54.3373 166.338 54.4013 166.338 54.444L166.242 54.636C166.135 54.8493 165.933 55.052 165.634 55.244C165.165 55.4787 164.642 55.532 164.066 55.404C163.703 55.3613 163.426 55.2653 163.234 55.116C163.042 54.924 162.903 54.732 162.818 54.54C162.69 54.3053 162.615 54.0813 162.594 53.868C162.53 53.676 162.498 53.4733 162.498 53.26V36.812C162.37 36.812 162.103 36.812 161.698 36.812C161.293 36.812 160.855 36.812 160.386 36.812C159.938 36.7907 159.511 36.7693 159.106 36.748C158.701 36.7267 158.423 36.7053 158.274 36.684C158.146 36.6627 157.943 36.6307 157.666 36.588C157.41 36.5453 157.197 36.5027 157.026 36.46C156.578 36.332 156.226 36.1293 155.97 35.852C155.735 35.5747 155.618 35.2653 155.618 34.924C155.618 34.796 155.618 34.668 155.618 34.54C155.618 34.412 155.639 34.2947 155.682 34.188C155.746 33.932 155.917 33.7187 156.194 33.548C156.279 33.484 156.407 33.4093 156.578 33.324C156.77 33.2173 156.951 33.1427 157.122 33.1C157.378 33.0147 157.698 32.9507 158.082 32.908C158.253 32.8867 158.423 32.876 158.594 32.876C158.765 32.876 158.946 32.876 159.138 32.876C159.885 32.876 160.589 32.876 161.25 32.876C161.933 32.876 162.647 32.8653 163.394 32.844C164.631 32.8227 165.858 32.8227 167.074 32.844C168.311 32.844 169.538 32.8653 170.754 32.908C171.031 32.9293 171.298 32.9613 171.554 33.004C171.81 33.0467 172.066 33.1213 172.322 33.228C172.514 33.292 172.695 33.3773 172.866 33.484C173.037 33.5693 173.175 33.6867 173.282 33.836ZM186.926 47.884C186.883 48.588 186.841 49.3027 186.798 50.028C186.755 50.732 186.638 51.4147 186.446 52.076C186.275 52.7373 185.998 53.3347 185.614 53.868C185.251 54.4013 184.729 54.828 184.046 55.148C183.449 55.4467 182.809 55.6493 182.126 55.756C181.443 55.884 180.761 55.9373 180.078 55.916C179.395 55.8947 178.734 55.788 178.094 55.596C177.454 55.4253 176.878 55.18 176.366 54.86C175.854 54.54 175.438 54.124 175.118 53.612C174.798 53.1 174.542 52.5453 174.35 51.948C174.179 51.3507 174.062 50.732 173.998 50.092C173.934 49.452 173.891 48.8547 173.87 48.3C173.785 46.828 173.785 45.3773 173.87 43.948C173.87 43.6707 173.87 43.3613 173.87 43.02C173.87 42.6573 173.891 42.3053 173.934 41.964C173.998 41.6227 174.094 41.3133 174.222 41.036C174.35 40.7373 174.563 40.5133 174.862 40.364C175.502 40.0227 176.089 40.0013 176.622 40.3C177.177 40.5987 177.507 41.2173 177.614 42.156C177.678 42.6467 177.699 43.1907 177.678 43.788C177.678 44.3853 177.699 44.9293 177.742 45.42C177.763 46.1453 177.785 46.9347 177.806 47.788C177.827 48.62 177.945 49.3667 178.158 50.028C178.393 50.6893 178.766 51.1907 179.278 51.532C179.811 51.852 180.601 51.8627 181.646 51.564C182.137 51.4147 182.457 51.0413 182.606 50.444C182.777 49.8467 182.862 48.9613 182.862 47.788C182.862 47.276 182.851 46.7107 182.83 46.092C182.809 45.4733 182.798 44.8653 182.798 44.268C182.798 43.6493 182.809 43.084 182.83 42.572C182.873 42.0387 182.937 41.6333 183.022 41.356C183.129 40.972 183.353 40.684 183.694 40.492C184.035 40.3 184.398 40.204 184.782 40.204C185.166 40.1827 185.529 40.2573 185.87 40.428C186.211 40.5987 186.446 40.876 186.574 41.26C186.702 41.6013 186.787 42.0387 186.83 42.572C186.894 43.084 186.937 43.6493 186.958 44.268C186.979 44.8653 186.979 45.484 186.958 46.124C186.958 46.7427 186.947 47.3293 186.926 47.884ZM189.587 44.172C189.587 43.916 189.587 43.628 189.587 43.308C189.587 42.9667 189.598 42.6253 189.619 42.284C189.641 41.9213 189.673 41.58 189.715 41.26C189.779 40.9187 189.865 40.62 189.971 40.364C190.142 39.98 190.409 39.724 190.771 39.596C191.134 39.4467 191.529 39.3827 191.955 39.404C192.403 39.404 192.755 39.4787 193.011 39.628C193.267 39.7773 193.459 39.98 193.587 40.236C193.715 40.4707 193.79 40.748 193.811 41.068C193.854 41.3667 193.875 41.6867 193.875 42.028C194.067 41.6867 194.323 41.4093 194.643 41.196C194.985 40.9827 195.326 40.812 195.667 40.684C196.009 40.556 196.318 40.4707 196.595 40.428C196.873 40.364 197.033 40.332 197.075 40.332C197.609 40.2893 198.089 40.2787 198.515 40.3C198.963 40.3213 199.454 40.4173 199.987 40.588C200.329 40.716 200.681 40.8973 201.043 41.132C201.406 41.3453 201.726 41.6013 202.003 41.9C202.281 42.1987 202.462 42.5293 202.547 42.892C202.654 43.2333 202.611 43.596 202.419 43.98C202.121 44.5133 201.79 44.78 201.427 44.78C201.065 44.7587 200.67 44.6947 200.243 44.588C200.009 44.5453 199.731 44.4493 199.411 44.3C199.091 44.1507 198.814 44.0547 198.579 44.012C197.854 43.9053 197.214 43.9587 196.659 44.172C196.105 44.3853 195.625 44.6413 195.219 44.94C194.75 45.3027 194.345 45.7187 194.003 46.188V50.796C194.003 51.372 193.993 51.9693 193.971 52.588C193.971 53.2067 193.886 53.772 193.715 54.284C193.566 54.7747 193.299 55.18 192.915 55.5C192.553 55.7987 192.019 55.9267 191.315 55.884C190.931 55.8627 190.59 55.6813 190.291 55.34C189.993 54.9773 189.811 54.6253 189.747 54.284C189.705 53.964 189.673 53.58 189.651 53.132C189.63 52.684 189.609 52.2147 189.587 51.724C189.587 51.2333 189.587 50.7427 189.587 50.252C189.587 49.74 189.587 49.2707 189.587 48.844V44.172ZM205.212 44.076C205.212 43.5853 205.202 43.0627 205.18 42.508C205.18 41.9533 205.276 41.452 205.468 41.004C205.639 40.5987 205.916 40.3107 206.3 40.14C206.706 39.948 207.1 39.9053 207.484 40.012C207.868 40.076 208.167 40.1933 208.38 40.364C208.594 40.5347 208.743 40.7373 208.828 40.972C208.935 41.1853 208.999 41.4413 209.02 41.74C209.042 42.0173 209.063 42.2947 209.084 42.572C209.298 42.188 209.564 41.8787 209.884 41.644C210.204 41.4093 210.535 41.2173 210.876 41.068C211.218 40.9187 211.538 40.812 211.836 40.748C212.156 40.684 212.402 40.652 212.572 40.652C213.383 40.652 214.183 40.8333 214.972 41.196C215.783 41.5373 216.455 42.028 216.988 42.668C217.287 43.052 217.511 43.4573 217.66 43.884C217.831 44.2893 217.948 44.716 218.012 45.164C218.098 45.612 218.151 46.0707 218.172 46.54C218.194 46.988 218.215 47.4467 218.236 47.916C218.343 49.2813 218.343 50.636 218.236 51.98C218.215 52.2573 218.204 52.5773 218.204 52.94C218.204 53.3027 218.172 53.6653 218.108 54.028C218.066 54.3693 217.97 54.6787 217.82 54.956C217.692 55.212 217.468 55.372 217.148 55.436C216.7 55.5427 216.327 55.564 216.028 55.5C215.751 55.4573 215.527 55.3613 215.356 55.212C215.186 55.0627 215.058 54.8707 214.972 54.636C214.887 54.4013 214.812 54.1347 214.748 53.836C214.706 53.6013 214.663 53.3347 214.62 53.036C214.599 52.716 214.578 52.396 214.556 52.076C214.556 51.756 214.546 51.4467 214.524 51.148C214.524 50.828 214.524 50.54 214.524 50.284C214.524 49.8787 214.514 49.4307 214.492 48.94C214.471 48.4493 214.471 47.9907 214.492 47.564C214.492 46.5613 214.226 45.804 213.692 45.292C213.18 44.7587 212.476 44.5347 211.58 44.62C210.898 44.7053 210.3 44.9827 209.788 45.452C209.276 45.9 209.031 46.4867 209.052 47.212C209.052 47.4893 209.052 47.7453 209.052 47.98C209.052 48.2147 209.042 48.4493 209.02 48.684C209.02 48.9187 209.02 49.1747 209.02 49.452C209.02 49.7293 209.02 50.0387 209.02 50.38C209.02 51.084 209.02 51.8307 209.02 52.62C209.02 53.388 208.924 54.0173 208.732 54.508C208.562 55.02 208.274 55.372 207.868 55.564C207.463 55.756 206.983 55.7027 206.428 55.404C206.194 55.276 206.002 55.1053 205.852 54.892C205.724 54.6573 205.618 54.412 205.532 54.156C205.468 53.9 205.426 53.644 205.404 53.388C205.383 53.1107 205.362 52.8547 205.34 52.62C205.276 51.916 205.234 51.2653 205.212 50.668C205.212 50.0493 205.212 49.388 205.212 48.684V44.076Z" fill="#3A2302"/>
</svg>
