<svg width="86" height="87" viewBox="0 0 86 87" fill="none" xmlns="http://www.w3.org/2000/svg">
<path d="M64.0697 13.4364C64.0697 15.0933 62.7266 16.4364 61.0697 16.4364H3.72071C2.06385 16.4364 0.720703 17.7796 0.720703 19.4364V24.1299C0.720703 25.7867 2.06385 27.1299 3.7207 27.1299H61.0697C62.7266 27.1299 64.0697 28.473 64.0697 30.1299V35.8443C64.0697 38.5287 67.3252 39.8619 69.208 37.9486L83.0451 23.8874C84.194 22.7198 84.194 20.8465 83.0451 19.679L69.208 5.61777C67.3252 3.70446 64.0697 5.03763 64.0697 7.72198V13.4364Z" fill="#000034"/>
<path d="M21.6815 72.676C21.6989 71.0193 23.056 69.6906 24.7127 69.7084L82.0586 70.3247C83.7153 70.3425 85.0724 69.0139 85.0898 67.3571L85.1388 62.6639C85.1562 61.0072 83.8272 59.6497 82.1704 59.6319L24.8246 59.0156C23.1678 58.9978 21.8388 57.6403 21.8561 55.9835L21.9159 50.2694C21.944 47.5852 18.7026 46.2171 16.7999 48.11L2.81656 62.0218C1.65547 63.1769 1.63587 65.0501 2.77254 66.23L16.4618 80.439C18.3245 82.3725 21.5937 81.0744 21.6218 78.3902L21.6815 72.676Z" fill="#000034"/>
</svg>
